<svg width="70" height="70" viewBox="0 0 70 70" fill="none" xmlns="http://www.w3.org/2000/svg">
<path d="M17.0015 44.0948C17.0169 44.1605 17.0226 44.2256 17.0409 44.2923C17.1784 44.7946 17.3405 45.1197 17.4697 45.3813C17.6239 45.6913 17.7089 45.8625 17.7231 46.2533C17.743 46.8195 17.5844 47.1528 17.4005 47.5392C17.203 47.9524 16.98 48.4216 17.0163 49.0996C17.0808 50.2178 17.7863 51.0728 18.4374 51.6297C17.6646 52.7409 17.0934 54.149 16.7395 55.8372C16.6517 56.2618 16.7579 56.6962 17.0305 57.0312C17.3 57.3616 17.6994 57.5512 18.1262 57.5512L51.2902 57.5515C51.7171 57.5515 52.1161 57.362 52.3859 57.0315C52.6583 56.6975 52.7644 56.2622 52.676 55.8347C52.1332 53.2566 51.0921 51.3533 49.5923 50.1517C49.6511 49.1262 49.8543 48.1417 50.2138 47.2245C50.5683 46.32 50.9004 45.9033 51.1926 45.5368C51.4587 45.2019 51.7348 44.8566 51.9152 44.2904C51.9575 44.1574 51.9901 44.0263 52.015 43.8961C53.2444 43.8784 55.1467 43.7476 56.2459 42.4384C57.0557 41.4789 57.1681 40.2656 57.219 38.9996C57.4256 33.2551 57.3924 27.4869 57.1191 21.8567C57.0477 20.3265 56.534 19.2969 55.5834 18.7908C55.0336 18.5077 54.4311 18.4135 53.8573 18.3421C50.7086 17.9636 47.4652 17.7172 43.9598 17.5854C43.9026 17.5282 43.848 17.4752 43.7886 17.4154C42.0392 15.6872 40.6569 14.322 38.4595 13.8981C37.4757 13.7063 36.4489 13.7252 35.4094 13.9581C34.8878 14.074 34.4066 14.0955 33.9311 14.0191C32.6642 13.8352 31.4193 13.8867 30.232 14.1732C27.6438 14.7947 26.0616 16.3473 25.3905 17.0054C25.2199 17.1697 25.0275 17.3706 24.8266 17.5899C23.3616 17.5836 21.9003 17.5687 20.4366 17.5523L18.9333 17.5359C16.9643 17.5188 14.5723 17.7169 13.4684 19.5118C12.9035 20.4211 12.8605 21.477 12.8252 22.3243C12.7395 24.2642 12.6185 26.238 12.501 28.1465C12.3086 31.281 12.1089 34.5223 12.0599 37.7343V39.8723C12.0742 40.5269 12.1456 41.483 12.6034 42.2305C13.5149 43.7145 15.348 44.0402 16.9997 44.0933L17.0015 44.0948ZM26.2762 31.8283C26.3065 31.9281 26.3334 32.027 26.3716 32.1284C26.4531 32.3436 26.5605 32.5593 26.6803 32.7739C26.7198 33.1773 26.7659 33.5672 26.8104 33.9331L26.8379 34.1552C26.8796 34.497 26.9207 34.824 26.964 35.1453C26.7801 35.1476 26.6114 35.1134 26.4623 35.0433C25.6781 34.673 25.5577 33.3072 25.5056 32.7113C25.4908 32.56 25.4702 32.3284 25.468 32.0715C25.7347 32.0263 26.0051 31.9391 26.2762 31.8279L26.2762 31.8283ZM24.5735 30.6564C24.4958 30.6353 24.432 30.6141 24.3802 30.5948C24.4092 30.5686 24.4424 30.5405 24.4813 30.5076C24.9059 30.1595 25.487 29.8536 26.17 29.5927C26.122 29.8369 26.0895 30.0938 26.0809 30.3633C25.6752 30.5898 25.1107 30.8034 24.5742 30.6562L24.5735 30.6564ZM43.9504 32.0634C43.9482 32.3253 43.9277 32.5638 43.9122 32.7243C43.8604 33.3076 43.7403 34.6734 42.9562 35.0444C42.899 35.0712 42.8301 35.0756 42.7679 35.0917C42.8528 34.3338 42.874 33.5752 42.8633 32.827C43.0551 32.5405 43.2137 32.234 43.3255 31.9048C43.5179 31.9734 43.729 32.0258 43.9504 32.0641L43.9504 32.0634ZM43.5094 29.6846C44.2016 29.9728 44.6566 30.2707 44.9374 30.5036C44.9769 30.5367 45.011 30.5664 45.0407 30.5927C44.9889 30.6126 44.9254 30.6337 44.8474 30.6555C44.3915 30.7794 43.9188 30.6407 43.5615 30.4745C43.5643 30.2142 43.5473 29.9507 43.5091 29.6846L43.5094 29.6846ZM27.5708 44.0452L30.4434 44.031C30.4412 44.4139 30.4285 44.7981 30.3995 45.1823C29.4829 45.6846 28.5758 46.1418 27.6627 46.5835C27.7364 45.4972 27.6548 44.6995 27.5714 44.0442L27.5708 44.0452ZM29.9154 35.1223C30.0386 35.1359 30.1574 35.1422 30.2721 35.1422C31.3217 35.1422 32.042 34.6108 32.6853 34.1365C32.9797 33.9192 33.2584 33.7189 33.5564 33.5669C33.429 33.8727 33.3194 34.2032 33.2932 34.5713C33.2373 35.3463 33.5952 36.0484 34.2063 36.3589C34.3096 36.4114 34.4192 36.436 34.5269 36.436C34.7844 36.436 35.0331 36.2951 35.1582 36.0496C35.3351 35.7015 35.1971 35.2753 34.8489 35.0977C34.7696 35.0572 34.6909 34.8727 34.7051 34.6718C34.7257 34.3852 34.8729 34.0702 35.0483 33.6952C35.095 33.5954 35.1408 33.4886 35.1863 33.3824C35.4884 33.4687 35.7313 33.6175 36.0236 33.8077C36.5459 34.1473 37.1954 34.5707 38.3569 34.6626C38.8517 34.6992 40.2084 34.7305 41.4256 34.1078C41.3372 35.9124 40.9549 37.4625 39.8488 38.8631C38.2792 40.8589 36.5578 41.413 35.3914 41.5262C32.2358 41.8248 30.0602 39.2672 29.8239 38.9762C28.78 37.6824 28.5345 36.3235 28.3102 34.534C28.7866 34.8383 29.3221 35.0579 29.9152 35.123L29.9154 35.1223ZM34.0858 26.0684C34.2514 25.8583 34.4169 25.6387 34.5834 25.3996C34.9189 24.9149 35.2112 24.4003 35.4836 23.8739C36.7477 24.8047 38.279 25.3727 39.8126 25.4498C39.8543 25.452 39.9108 25.4555 39.9605 25.4605L39.9617 25.4675C40.0189 25.8106 40.0799 26.1534 40.1399 26.4965C38.3459 26.1702 36.5242 26.0131 34.6968 26.0394C34.4924 26.0422 34.2886 26.0605 34.0845 26.0684L34.0858 26.0684ZM27.9647 40.5608C28.1267 40.2281 28.3236 39.9147 28.5416 39.6146C28.6038 39.6989 28.6569 39.7836 28.7248 39.868C28.9109 40.0974 29.4275 40.6876 30.2173 41.2919C30.2916 41.7301 30.3453 42.1725 30.3829 42.6167L27.4446 42.6309C27.4475 42.2748 27.4885 41.9055 27.6073 41.4581C27.6348 41.3554 27.7524 40.9946 27.9647 40.5608ZM27.492 48.2355C28.8092 47.6219 30.0979 46.9707 31.4141 46.239C31.6173 46.1265 31.7525 45.9211 31.7749 45.6905C31.8896 44.5363 31.8833 43.3835 31.7708 42.2445C32.6476 42.6622 33.6845 42.9665 34.8636 42.9665C35.08 42.9665 35.3018 42.9567 35.5274 42.9346C36.1331 42.8758 36.8585 42.7216 37.6351 42.3873C37.5359 43.4865 37.5346 44.592 37.643 45.6896C37.6657 45.9209 37.8 46.1256 38.0032 46.2387C39.5791 47.1155 41.139 47.892 42.7398 48.6073C40.7976 49.291 38.8587 49.7533 36.9564 49.9697C33.6301 50.3561 30.3364 49.9937 27.3784 48.9385C27.4245 48.7043 27.4611 48.4693 27.493 48.2342L27.492 48.2355ZM53.6864 19.7481C54.1486 19.8062 54.5922 19.8725 54.9284 20.046C55.3991 20.2965 55.6607 20.9284 55.7075 21.9249C55.9792 27.5171 56.0124 33.2451 55.8067 38.9465C55.7643 39.9926 55.6869 40.9082 55.1647 41.5274C54.4936 42.3264 53.2036 42.4589 51.9778 42.48C51.67 41.1935 50.6805 40.0165 49.7131 38.8665C48.4477 37.3626 47.2525 35.9421 47.5921 34.4461C47.6755 34.0796 47.8923 33.4895 48.1223 32.8645C48.7564 31.1363 49.1953 29.8431 49.0521 28.936C48.9396 28.2185 48.7377 27.8031 48.5042 27.3225C48.285 26.871 48.0117 26.3084 47.6692 25.2234C47.3239 24.1321 47.2149 23.4873 47.1195 22.9192C47.0111 22.2766 46.9179 21.7218 46.5249 20.8788C46.1944 20.1676 45.82 19.6091 45.367 19.0678C48.2777 19.2081 51.0224 19.4286 53.6865 19.7487L53.6864 19.7481ZM26.3791 18.0227C27.0211 17.3927 28.3572 16.0815 30.5654 15.5513C31.578 15.3071 32.6433 15.2641 33.721 15.4205C34.3586 15.521 35.0309 15.4948 35.7204 15.3412C36.5683 15.1517 37.399 15.134 38.1917 15.2888C39.9701 15.6313 41.1556 16.8025 42.8244 18.4517C44.0332 19.6463 44.6986 20.3044 45.2426 21.4743C45.5547 22.1438 45.6227 22.545 45.7244 23.1529C45.8227 23.7368 45.9452 24.4635 46.3203 25.6489C46.694 26.8331 47.0046 27.4725 47.2318 27.9398C47.4527 28.3957 47.5749 28.6462 47.6552 29.1549C47.7515 29.7691 47.1762 31.3374 46.7945 32.3756C46.5383 33.0735 46.3168 33.6763 46.2135 34.1313C45.7181 36.3138 47.2659 38.1539 48.6317 39.7766C49.8399 41.2126 50.9814 42.5692 50.5694 43.8586C50.4673 44.1765 50.3166 44.366 50.0882 44.6526C49.7685 45.0538 49.3303 45.6029 48.8977 46.7063C48.5735 47.5343 48.36 48.4076 48.2472 49.3106C47.8649 49.1359 47.4453 48.9779 46.9151 48.7804C46.2349 48.5277 45.3885 48.213 44.1875 47.6989C42.4267 46.946 40.7324 46.1201 39.019 45.1808C38.9265 43.9544 38.9802 42.7203 39.1675 41.5007C39.7697 41.0549 40.377 40.4786 40.9615 39.7365C41.7605 38.7245 42.2256 37.65 42.5014 36.5553C42.8764 36.5524 43.2347 36.4753 43.5601 36.3212C45.0783 35.6037 45.2489 33.6713 45.3209 32.8499C45.3484 32.5709 45.3683 32.2752 45.3649 31.9658C46.0839 31.7317 46.5035 31.3608 46.5885 30.8506C46.7089 30.1293 46.0994 29.6256 45.8391 29.4105C45.1412 28.8329 44.1845 28.3678 43.0124 28.0127C42.8898 27.7496 42.7492 27.4905 42.5855 27.2371C42.4892 27.0876 42.3407 26.9796 42.1688 26.935C41.9912 26.8889 41.8099 26.8573 41.6317 26.8147C41.5382 26.2851 41.444 25.7525 41.3492 25.1856C41.3126 25.0122 41.2579 24.7503 41.0674 24.5127C40.717 24.0824 40.2027 24.052 39.8814 24.0337C38.5253 23.9658 37.1674 23.4293 36.0831 22.551C36.3826 21.7959 36.635 21.0129 36.8148 20.1928C36.8982 19.8105 36.6562 19.4332 36.2748 19.3498C35.8913 19.2664 35.5153 19.5078 35.4319 19.8898C35.0512 21.6278 34.3731 23.2097 33.419 24.592C32.9561 25.2574 32.5069 25.7762 32.0206 26.2204C30.5155 26.3875 29.022 26.6621 27.5614 27.0703C27.4211 27.1092 27.2966 27.1901 27.2053 27.3025C27.1835 27.3294 27.0107 27.5452 26.8081 27.8984C25.4584 28.2643 24.3665 28.7695 23.5823 29.4131C23.3438 29.609 22.7103 30.1293 22.8307 30.8503C22.9157 31.3647 23.3346 31.735 24.0522 31.9663C24.0487 32.2756 24.0686 32.57 24.0961 32.8475C24.1691 33.6727 24.3387 35.6047 25.8575 36.3223C26.193 36.4809 26.5611 36.5602 26.9487 36.5602C27.0302 36.5602 27.1143 36.5453 27.197 36.539C27.3278 37.1519 27.5092 37.7352 27.7667 38.3032C27.3421 38.8043 26.9797 39.3505 26.6931 39.9379C26.442 40.4522 26.2903 40.904 26.2401 41.0908C25.9166 42.303 26.0256 43.139 26.1409 44.0227C26.2372 44.7602 26.3453 45.5961 26.2195 46.8656C26.1911 47.1537 26.163 47.4261 26.1361 47.6801C25.9728 49.0791 25.7463 49.9703 25.0187 50.6695C24.0143 51.6335 22.323 51.9554 20.9025 51.4537C20.5572 51.3327 20.1736 51.1365 19.821 50.9018C18.974 50.3391 18.4672 49.6519 18.4303 49.0184C18.4132 48.7034 18.5187 48.4813 18.6786 48.1458C18.8979 47.6858 19.1705 47.1133 19.1386 46.199C19.1124 45.5026 18.9222 45.1197 18.738 44.7488C18.6249 44.521 18.5074 44.2853 18.4059 43.9144C17.9162 42.1372 18.6075 40.366 19.0641 39.4655C19.4568 38.6836 19.7781 38.4081 20.1187 38.1174C20.4937 37.7961 20.919 37.4324 21.2242 36.5485C21.6122 35.4253 21.4308 34.5852 21.2709 33.8437C21.1237 33.16 20.9837 32.5145 21.2397 31.5442C21.391 30.9724 21.5616 30.7183 21.7979 30.3667C22.0336 30.0163 22.3274 29.5803 22.6317 28.7857C23.135 27.4742 23.118 26.5876 23.1009 25.7299C23.0902 25.1984 23.0797 24.6484 23.1881 23.9387C23.6424 20.9338 25.5688 18.8009 26.3808 18.0186L26.3791 18.0227ZM13.4768 37.7474C13.5248 34.579 13.7232 31.3545 13.915 28.2364C14.0332 26.3221 14.1542 24.3427 14.2404 22.388C14.2765 21.5188 14.3311 20.8111 14.6736 20.2591C15.4025 19.0737 17.2283 18.9363 18.9192 18.954L20.4225 18.9704C21.5194 18.9824 22.6164 18.9903 23.7134 18.9988C22.8762 20.2104 22.0787 21.7965 21.7862 23.7307C21.6595 24.5595 21.6721 25.1986 21.6835 25.7626C21.6999 26.5828 21.7126 27.2311 21.3085 28.2835C21.0608 28.929 20.8377 29.2607 20.6219 29.5814C20.3565 29.9763 20.082 30.3839 19.8697 31.1873C19.5278 32.4859 19.7269 33.4068 19.8861 34.1471C20.0305 34.8144 20.1445 35.3417 19.8855 36.0911C19.7057 36.6112 19.5253 36.7663 19.1977 37.0465C18.8062 37.382 18.3194 37.7981 17.8006 38.8322C17.388 39.646 16.8177 41.0649 16.8247 42.6716C15.6073 42.6128 14.3511 42.3702 13.8128 41.4931C13.5028 40.987 13.4845 40.1273 13.4779 39.8597V37.7473L13.4768 37.7474Z" fill="url(#paint0_linear_1_157)"/>
<defs>
<linearGradient id="paint0_linear_1_157" x1="5.39994" y1="12.6868" x2="60.1992" y2="17.0741" gradientUnits="userSpaceOnUse">
<stop offset="0.270833" stop-color="#A3A3A3"/>
<stop offset="0.412103" stop-color="#CCCCCC"/>
<stop offset="0.551716" stop-color="white"/>
<stop offset="0.677083" stop-color="#CCCCCC"/>
<stop offset="0.833333" stop-color="#A3A3A3"/>
</linearGradient>
</defs>
</svg>
