<svg width="21" height="21" viewBox="0 0 21 21" fill="none" xmlns="http://www.w3.org/2000/svg">
<path d="M6.5 20.5C5.95 20.5 5.47933 20.3043 5.088 19.913C4.696 19.521 4.5 19.05 4.5 18.5C4.5 17.95 4.696 17.479 5.088 17.087C5.47933 16.6957 5.95 16.5 6.5 16.5C7.05 16.5 7.52067 16.6957 7.912 17.087C8.304 17.479 8.5 17.95 8.5 18.5C8.5 19.05 8.304 19.521 7.912 19.913C7.52067 20.3043 7.05 20.5 6.5 20.5ZM16.5 20.5C15.95 20.5 15.4793 20.3043 15.088 19.913C14.696 19.521 14.5 19.05 14.5 18.5C14.5 17.95 14.696 17.479 15.088 17.087C15.4793 16.6957 15.95 16.5 16.5 16.5C17.05 16.5 17.521 16.6957 17.913 17.087C18.3043 17.479 18.5 17.95 18.5 18.5C18.5 19.05 18.3043 19.521 17.913 19.913C17.521 20.3043 17.05 20.5 16.5 20.5ZM6.5 15.5C5.75 15.5 5.18333 15.1707 4.8 14.512C4.41667 13.854 4.4 13.2 4.75 12.55L6.1 10.1L2.5 2.5H1.475C1.19167 2.5 0.958333 2.404 0.775 2.212C0.591667 2.02067 0.5 1.78333 0.5 1.5C0.5 1.21667 0.596 0.979 0.788 0.787C0.979333 0.595667 1.21667 0.5 1.5 0.5H3.125C3.30833 0.5 3.48333 0.55 3.65 0.65C3.81667 0.75 3.94167 0.891667 4.025 1.075L4.7 2.5H19.45C19.9 2.5 20.2083 2.66667 20.375 3C20.5417 3.33333 20.5333 3.68333 20.35 4.05L16.8 10.45C16.6167 10.7833 16.375 11.0417 16.075 11.225C15.775 11.4083 15.4333 11.5 15.05 11.5H7.6L6.5 13.5H17.525C17.8083 13.5 18.0417 13.5957 18.225 13.787C18.4083 13.979 18.5 14.2167 18.5 14.5C18.5 14.7833 18.404 15.0207 18.212 15.212C18.0207 15.404 17.7833 15.5 17.5 15.5H6.5Z" fill="url(#paint0_linear_1_11162)"/>
<defs>
<linearGradient id="paint0_linear_1_11162" x1="-2.44001" y1="0.00635357" x2="21.7609" y2="1.87885" gradientUnits="userSpaceOnUse">
<stop offset="0.270833" stop-color="#A3A3A3"/>
<stop offset="0.412103" stop-color="#CCCCCC"/>
<stop offset="0.551716" stop-color="white"/>
<stop offset="0.677083" stop-color="#CCCCCC"/>
<stop offset="0.833333" stop-color="#A3A3A3"/>
</linearGradient>
</defs>
</svg>
