<svg width="50" height="17" viewBox="0 0 50 17" fill="none" xmlns="http://www.w3.org/2000/svg">
<path d="M-3.01012 6.14369L5.21269 10.6612L0.887805 9.82782C2.884 11.0882 5.66078 12.4256 9.40768 13.8494L18.027 13.6698L13.456 15.2453C15.7095 15.8879 18.3004 16.367 21.0163 16.6094L25.9944 13.5952L23.2474 16.7648C26.0503 16.8829 28.9153 16.7648 31.625 16.3298C34.467 15.8779 37.1413 15.0719 39.3432 13.8059L39.9224 16.7219C41.2387 15.0924 42.0348 13.328 42.4151 11.3592L43.8644 14.0887C44.8501 12.1534 45.0185 10.4325 44.4704 8.35554C47.2751 7.02122 49.7828 5.20339 52.3097 3.41725L51.3589 2.08107C36.8137 13.9737 19.0276 13.0421 6.83537 8.31763L7.48669 6.80867C18.4372 10.985 30.034 11.1466 41.3512 5.9821C40.2325 4.85101 38.9958 3.88771 37.7155 3.12951L33.6262 6.6098L36.2612 2.34644C35.3352 1.91762 34.4154 1.59445 33.5143 1.38936L32.0973 5.37927L32.2216 1.17806C31.3267 1.07862 30.469 1.11591 29.6673 1.29614C24.826 2.35887 19.9163 3.31595 13.571 1.88033L15.4043 5.7273L11.1783 1.24021C10.1093 0.892177 8.92231 0.587652 7.94037 0.438497L10.7805 3.77585L5.04427 0.227194C4.32335 0.227194 3.60865 0.270697 2.92502 0.345274C0.486329 0.633641 -1.66026 1.32597 -2.77706 2.7908C-3.34199 3.51731 -3.56386 4.50982 -3.27611 5.47746C-3.20154 5.71362 -3.10521 5.95289 -3.01012 6.14369Z" fill="url(#paint0_linear_120_22)"/>
<defs>
<linearGradient id="paint0_linear_120_22" x1="27.9421" y1="38.5382" x2="-4.46099" y2="0.742955" gradientUnits="userSpaceOnUse">
<stop offset="0.270833" stop-color="#A3A3A3"/>
<stop offset="0.412103" stop-color="#CCCCCC"/>
<stop offset="0.551716" stop-color="white"/>
<stop offset="0.677083" stop-color="#CCCCCC"/>
<stop offset="0.833333" stop-color="#A3A3A3"/>
</linearGradient>
</defs>
</svg>
