<svg width="188" height="25" viewBox="0 0 188 25" fill="none" xmlns="http://www.w3.org/2000/svg">
<g style="mix-blend-mode:color-dodge">
<path d="M7.892 18.888C7.892 19.8 7.988 20.412 8.18 20.724C8.396 21.036 8.816 21.192 9.44 21.192C9.824 21.192 10.268 21.168 10.772 21.12C11.276 21.048 11.612 21 11.78 20.976L12.068 21.372L11.672 24.144C11.264 24.12 10.496 24.084 9.368 24.036C8.264 24.012 7.172 24 6.092 24C4.964 24 3.8 24.048 2.6 24.144C1.4 24.264 0.632 24.348 0.296 24.396L0.548 21.948C1.58 21.78 2.264 21.48 2.6 21.048C2.96 20.616 3.14 19.872 3.14 18.816L3.176 5.172C3.176 4.404 3.092 3.888 2.924 3.624C2.78 3.36 2.48 3.228 2.024 3.228C1.784 3.228 1.556 3.24 1.34 3.264C1.148 3.288 1.016 3.3 0.944 3.3L0.692 2.976L0.98 0.779999C1.412 0.803998 2.264 0.827999 3.536 0.852C4.808 0.875999 6.164 0.887999 7.604 0.887999C12.308 0.887999 15.68 0.743999 17.72 0.455998L18.008 0.852C17.936 1.236 17.804 2.088 17.612 3.408C17.444 4.704 17.324 6.048 17.252 7.44L13.976 7.656C13.976 7.536 13.988 7.332 14.012 7.044C14.036 6.756 14.048 6.468 14.048 6.18C14.048 5.508 13.952 5.016 13.76 4.704C13.592 4.392 13.244 4.188 12.716 4.092C12.212 3.972 11.384 3.912 10.232 3.912C9.632 3.912 9.212 3.936 8.972 3.984C8.732 4.032 8.564 4.14 8.468 4.308C8.396 4.452 8.36 4.716 8.36 5.1L8.072 11.292L11.456 11.328C11.912 11.328 12.584 11.292 13.472 11.22C14.36 11.124 14.948 11.064 15.236 11.04L15.488 11.364L14.984 14.46C14.696 14.436 14.132 14.412 13.292 14.388C12.476 14.364 11.612 14.352 10.7 14.352C9.836 14.352 8.924 14.436 7.964 14.604L7.892 18.888ZM29.1486 24.432C27.0366 24.432 25.2006 23.976 23.6406 23.064C22.0806 22.128 20.8806 20.808 20.0406 19.104C19.2246 17.4 18.8166 15.384 18.8166 13.056C18.8166 10.536 19.2966 8.328 20.2566 6.432C21.2406 4.536 22.6206 3.072 24.3966 2.04C26.1966 0.983999 28.2726 0.455998 30.6246 0.455998C33.8886 0.455998 36.4446 1.452 38.2926 3.444C40.1406 5.436 41.0646 8.196 41.0646 11.724C41.0646 14.244 40.5726 16.464 39.5886 18.384C38.6046 20.304 37.2006 21.792 35.3766 22.848C33.5766 23.904 31.5006 24.432 29.1486 24.432ZM30.0846 21.3C31.7646 21.3 33.0726 20.628 34.0086 19.284C34.9686 17.94 35.4486 16.056 35.4486 13.632C35.4486 10.464 34.9446 8.064 33.9366 6.432C32.9286 4.776 31.5006 3.948 29.6526 3.948C27.9966 3.948 26.7006 4.62 25.7646 5.964C24.8526 7.284 24.3966 9.168 24.3966 11.616C24.3966 14.76 24.8886 17.16 25.8726 18.816C26.8566 20.472 28.2606 21.3 30.0846 21.3ZM50.9584 18.924C50.9584 19.764 51.0184 20.364 51.1384 20.724C51.2584 21.084 51.4864 21.336 51.8224 21.48C52.1584 21.6 52.7344 21.672 53.5504 21.696L53.6584 21.912L53.3344 24.144C52.9024 24.12 52.1224 24.096 50.9944 24.072C49.8904 24.048 48.8824 24.036 47.9704 24.036C47.0824 24.036 46.1584 24.06 45.1984 24.108C44.2624 24.156 43.6504 24.192 43.3624 24.216L43.6864 21.804C44.6944 21.66 45.3664 21.396 45.7024 21.012C46.0624 20.604 46.2424 19.884 46.2424 18.852V4.992C46.2424 4.32 46.1584 3.864 45.9904 3.624C45.8464 3.36 45.5584 3.228 45.1264 3.228C44.8624 3.228 44.5984 3.24 44.3344 3.264C44.0944 3.288 43.9384 3.3 43.8664 3.3L43.6504 3.012L43.9744 0.815998C44.3104 0.815998 44.9344 0.827999 45.8464 0.852C46.7584 0.875999 47.6464 0.887999 48.5104 0.887999C49.4944 0.887999 50.5504 0.863999 51.6784 0.815998C52.8064 0.767999 53.5864 0.731999 54.0184 0.707999C56.7784 0.707999 58.8904 1.248 60.3544 2.328C61.8184 3.384 62.5504 4.908 62.5504 6.9C62.5504 8.316 62.1304 9.612 61.2904 10.788C60.4744 11.964 59.2864 12.96 57.7264 13.776L60.8584 18.816C61.5064 19.896 62.1424 20.688 62.7664 21.192C63.4144 21.672 64.1104 21.912 64.8544 21.912L65.1064 22.272L64.8544 24.18L60.5704 24.576C58.9864 24.576 57.6664 23.46 56.6104 21.228L53.5504 14.964H51.0304L50.9584 18.924ZM54.3784 12.084C56.4184 11.244 57.4384 9.744 57.4384 7.584C57.4384 6.264 56.9944 5.292 56.1064 4.668C55.2424 4.02 53.8984 3.696 52.0744 3.696C51.8344 3.696 51.6784 3.744 51.6064 3.84C51.5344 3.936 51.4864 4.152 51.4624 4.488C51.2704 7.464 51.1624 9.876 51.1384 11.724L54.3784 12.084ZM72.9752 3.732C71.6072 3.78 70.6472 3.912 70.0952 4.128C69.5672 4.32 69.1952 4.704 68.9792 5.28C68.7632 5.856 68.5712 6.9 68.4032 8.412L65.3792 8.628C65.4272 8.148 65.4992 7.104 65.5952 5.496C65.7152 3.888 65.7872 2.352 65.8112 0.887999L66.2072 0.491998L69.8072 0.887999H81.0392L84.7112 0.491998L85.1072 0.887999C85.1312 2.4 85.1912 3.924 85.2872 5.46C85.3832 6.972 85.4432 7.956 85.4672 8.412L82.4432 8.628C82.2512 6.996 82.0472 5.892 81.8312 5.316C81.6392 4.716 81.2912 4.32 80.7872 4.128C80.2832 3.912 79.3832 3.78 78.0872 3.732C77.9912 5.412 77.9072 7.764 77.8352 10.788C77.7632 13.788 77.7272 16.572 77.7272 19.14C77.7272 20.028 77.8712 20.664 78.1592 21.048C78.4712 21.408 78.9752 21.588 79.6712 21.588C80.1752 21.588 80.5952 21.576 80.9312 21.552C81.2672 21.528 81.4832 21.504 81.5792 21.48L81.7232 21.66L81.3992 24.144C80.9192 24.12 80.0432 24.084 78.7712 24.036C77.5232 24.012 76.3112 24 75.1352 24C74.2952 24 73.1912 24.024 71.8232 24.072C70.4552 24.144 69.5552 24.192 69.1232 24.216L69.4112 21.84C70.5152 21.744 71.2952 21.6 71.7512 21.408C72.2312 21.192 72.5552 20.856 72.7232 20.4C72.8912 19.92 72.9752 19.14 72.9752 18.06V3.732ZM93.6513 24.432C92.5233 24.432 91.4913 24.324 90.5553 24.108C89.6193 23.916 88.8393 23.7 88.2153 23.46C87.5913 23.22 87.2793 23.088 87.2793 23.064L86.9913 22.56C87.0153 22.392 87.0633 22.032 87.1353 21.48C87.2313 20.904 87.3273 20.136 87.4233 19.176C87.5193 18.216 87.5673 17.304 87.5673 16.44L90.5913 16.188C90.5913 17.532 90.7113 18.564 90.9513 19.284C91.1913 20.004 91.5873 20.508 92.1393 20.796C92.7153 21.084 93.5193 21.228 94.5513 21.228C95.6793 21.228 96.5793 20.976 97.2513 20.472C97.9473 19.968 98.2953 19.296 98.2953 18.456C98.2953 17.904 98.1033 17.412 97.7193 16.98C97.3353 16.548 96.8673 16.176 96.3153 15.864C95.7633 15.528 94.9593 15.096 93.9033 14.568L92.9673 14.136C91.1913 13.272 89.7993 12.36 88.7913 11.4C87.7833 10.44 87.2793 9.192 87.2793 7.656C87.2793 6.264 87.6873 5.028 88.5033 3.948C89.3193 2.844 90.4593 1.992 91.9233 1.392C93.3873 0.767999 95.0553 0.455998 96.9273 0.455998C97.9833 0.455998 98.9673 0.527999 99.8793 0.672C100.791 0.816 101.511 0.971999 102.039 1.14C102.591 1.284 102.939 1.38 103.083 1.428L103.335 1.896C103.263 2.232 103.119 3.012 102.903 4.236C102.711 5.436 102.567 6.72 102.471 8.088L99.7353 8.304L99.4113 8.052C99.4113 7.98 99.4113 7.836 99.4113 7.62C99.4353 7.38 99.4473 7.104 99.4473 6.792C99.4473 5.736 99.1833 4.992 98.6553 4.56C98.1273 4.104 97.2393 3.876 95.9913 3.876C94.9833 3.876 94.1553 4.116 93.5073 4.596C92.8593 5.076 92.5353 5.688 92.5353 6.432C92.5353 7.248 92.9193 7.944 93.6873 8.52C94.4553 9.072 95.6433 9.72 97.2513 10.464C98.5953 11.112 99.6993 11.7 100.563 12.228C101.427 12.756 102.159 13.44 102.759 14.28C103.359 15.096 103.659 16.056 103.659 17.16C103.659 18.6 103.239 19.872 102.399 20.976C101.583 22.08 100.419 22.932 98.9073 23.532C97.3953 24.132 95.6433 24.432 93.6513 24.432ZM112.805 24C111.485 24 110.213 24.048 108.989 24.144C107.765 24.24 106.985 24.312 106.649 24.36L106.901 21.912C107.813 21.768 108.437 21.48 108.773 21.048C109.133 20.592 109.313 19.848 109.313 18.816L109.349 5.1C109.349 4.332 109.253 3.828 109.061 3.588C108.893 3.348 108.545 3.228 108.017 3.228L106.937 3.264L106.757 2.976L107.009 0.852L111.905 0.887999C112.577 0.887999 113.561 0.851999 114.857 0.779999C116.177 0.707999 117.053 0.659999 117.485 0.635998L117.233 3.192C116.417 3.288 115.817 3.42 115.433 3.588C115.073 3.756 114.833 3.996 114.713 4.308C114.593 4.62 114.509 5.124 114.461 5.82C114.197 9.9 114.065 14.292 114.065 18.996C114.065 19.62 114.113 20.088 114.209 20.4C114.329 20.688 114.545 20.892 114.857 21.012C115.169 21.108 115.649 21.156 116.297 21.156C117.473 21.156 118.349 21.024 118.925 20.76C119.501 20.472 119.933 19.956 120.221 19.212C120.509 18.468 120.749 17.292 120.941 15.684L123.965 15.36L124.217 15.72C124.145 16.176 124.001 17.208 123.785 18.816C123.593 20.424 123.425 22.116 123.281 23.892L122.921 24.288C122.273 24.264 120.869 24.204 118.709 24.108C116.549 24.036 114.581 24 112.805 24ZM133.154 18.996C133.154 19.668 133.202 20.148 133.298 20.436C133.394 20.724 133.598 20.916 133.91 21.012C134.222 21.108 134.738 21.156 135.458 21.156C137.018 21.156 138.146 21.06 138.842 20.868C139.538 20.676 140.042 20.316 140.354 19.788C140.666 19.236 140.906 18.324 141.074 17.052L144.098 16.8L144.386 17.16C144.314 17.544 144.158 18.396 143.918 19.716C143.702 21.036 143.522 22.416 143.378 23.856L143.018 24.252C142.274 24.228 140.678 24.18 138.23 24.108C135.806 24.036 133.67 24 131.822 24C130.478 24 129.182 24.048 127.934 24.144C126.71 24.24 125.918 24.312 125.558 24.36L125.81 21.912C126.818 21.768 127.502 21.48 127.862 21.048C128.222 20.616 128.402 19.872 128.402 18.816L128.438 5.172C128.438 4.404 128.354 3.888 128.186 3.624C128.042 3.36 127.742 3.228 127.286 3.228C127.046 3.228 126.818 3.24 126.602 3.264C126.41 3.288 126.278 3.3 126.206 3.3L125.954 2.976L126.242 0.779999C126.674 0.803998 127.526 0.827999 128.798 0.852C130.07 0.875999 131.426 0.887999 132.866 0.887999C137.954 0.887999 141.602 0.743999 143.81 0.455998L144.098 0.852C144.026 1.212 143.894 2.052 143.702 3.372C143.51 4.668 143.366 6.012 143.27 7.404L139.994 7.62C139.994 7.524 140.006 7.332 140.03 7.044C140.054 6.756 140.066 6.468 140.066 6.18C140.066 5.484 139.958 4.992 139.742 4.704C139.55 4.392 139.142 4.188 138.518 4.092C137.918 3.972 136.91 3.912 135.494 3.912C134.894 3.912 134.474 3.936 134.234 3.984C133.994 4.032 133.826 4.14 133.73 4.308C133.658 4.452 133.622 4.716 133.622 5.1L133.37 10.68L136.718 10.716C137.222 10.716 137.966 10.68 138.95 10.608C139.934 10.512 140.582 10.452 140.894 10.428L141.182 10.752L140.678 13.848C140.366 13.824 139.754 13.8 138.842 13.776C137.93 13.752 136.97 13.74 135.962 13.74C135.434 13.74 134.522 13.812 133.226 13.956C133.178 15.708 133.154 17.388 133.154 18.996ZM154.634 18.996C154.634 19.668 154.682 20.148 154.778 20.436C154.874 20.724 155.078 20.916 155.39 21.012C155.702 21.108 156.218 21.156 156.938 21.156C158.498 21.156 159.626 21.06 160.322 20.868C161.018 20.676 161.522 20.316 161.834 19.788C162.146 19.236 162.386 18.324 162.554 17.052L165.578 16.8L165.866 17.16C165.794 17.544 165.638 18.396 165.398 19.716C165.182 21.036 165.002 22.416 164.858 23.856L164.498 24.252C163.754 24.228 162.158 24.18 159.71 24.108C157.286 24.036 155.15 24 153.302 24C151.958 24 150.662 24.048 149.414 24.144C148.19 24.24 147.398 24.312 147.038 24.36L147.29 21.912C148.298 21.768 148.982 21.48 149.342 21.048C149.702 20.616 149.882 19.872 149.882 18.816L149.918 5.172C149.918 4.404 149.834 3.888 149.666 3.624C149.522 3.36 149.222 3.228 148.766 3.228C148.526 3.228 148.298 3.24 148.082 3.264C147.89 3.288 147.758 3.3 147.686 3.3L147.434 2.976L147.722 0.779999C148.154 0.803998 149.006 0.827999 150.278 0.852C151.55 0.875999 152.906 0.887999 154.346 0.887999C159.434 0.887999 163.082 0.743999 165.29 0.455998L165.578 0.852C165.506 1.212 165.374 2.052 165.182 3.372C164.99 4.668 164.846 6.012 164.75 7.404L161.474 7.62C161.474 7.524 161.486 7.332 161.51 7.044C161.534 6.756 161.546 6.468 161.546 6.18C161.546 5.484 161.438 4.992 161.222 4.704C161.03 4.392 160.622 4.188 159.998 4.092C159.398 3.972 158.39 3.912 156.974 3.912C156.374 3.912 155.954 3.936 155.714 3.984C155.474 4.032 155.306 4.14 155.21 4.308C155.138 4.452 155.102 4.716 155.102 5.1L154.85 10.68L158.198 10.716C158.702 10.716 159.446 10.68 160.43 10.608C161.414 10.512 162.062 10.452 162.374 10.428L162.662 10.752L162.158 13.848C161.846 13.824 161.234 13.8 160.322 13.776C159.41 13.752 158.45 13.74 157.442 13.74C156.914 13.74 156.002 13.812 154.706 13.956C154.658 15.708 154.634 17.388 154.634 18.996ZM173.667 0.887999C174.603 0.887999 175.635 0.863999 176.763 0.815998C177.891 0.767999 178.683 0.731999 179.139 0.707999C182.235 0.707999 184.455 1.368 185.799 2.688C187.143 3.984 187.815 5.64 187.815 7.656C187.815 9.072 187.407 10.416 186.591 11.688C185.799 12.936 184.743 13.944 183.423 14.712C182.103 15.456 180.699 15.828 179.211 15.828H176.151L176.115 18.492C176.115 19.404 176.151 20.076 176.223 20.508C176.319 20.94 176.475 21.24 176.691 21.408C176.931 21.576 177.303 21.66 177.807 21.66C178.143 21.66 178.467 21.648 178.779 21.624C179.091 21.6 179.295 21.576 179.391 21.552L179.499 21.768L179.175 24.108C178.839 24.108 178.215 24.084 177.303 24.036C176.391 24.012 175.503 24 174.639 24C173.847 24 172.755 24.036 171.363 24.108C169.995 24.18 169.083 24.24 168.627 24.288L168.915 21.84C169.899 21.672 170.559 21.384 170.895 20.976C171.231 20.568 171.399 19.86 171.399 18.852V5.172C171.399 4.404 171.315 3.888 171.147 3.624C171.003 3.36 170.703 3.228 170.247 3.228C169.983 3.228 169.731 3.24 169.491 3.264C169.251 3.288 169.095 3.3 169.023 3.3L168.807 3.012L169.131 0.852L173.667 0.887999ZM179.427 13.056C181.611 12.6 182.703 10.968 182.703 8.16C182.703 6.648 182.283 5.544 181.443 4.848C180.603 4.152 179.259 3.804 177.411 3.804C177.075 3.804 176.859 3.84 176.763 3.912C176.691 3.96 176.643 4.14 176.619 4.452C176.451 7.548 176.331 10.272 176.259 12.624L179.427 13.056Z" fill="url(#paint0_linear_117_2)"/>
</g>
<defs>
<linearGradient id="paint0_linear_117_2" x1="93.5" y1="-16" x2="93.5" y2="40" gradientUnits="userSpaceOnUse">
<stop offset="0.202502" stop-color="#4D8095"/>
<stop offset="0.695833" stop-color="#ABABAB"/>
</linearGradient>
</defs>
</svg>
